<svg xmlns="http://www.w3.org/2000/svg" version="1.1" xmlns:xlink="http://www.w3.org/1999/xlink" xmlns:svgjs="http://svgjs.dev/svgjs" width="2000" height="1500" viewBox="0 0 2000 1500"><rect width="2000" height="1500" fill="#faebd7"></rect><g transform="matrix(0.4880429477794046,0,0,0.4880429477794046,511.56496634924645,248.38709677419354)"><svg viewBox="0 0 242 248" data-background-color="#faebd7" preserveAspectRatio="xMidYMid meet" height="2049" width="2000" xmlns="http://www.w3.org/2000/svg" xmlns:xlink="http://www.w3.org/1999/xlink"><g id="tight-bounds" transform="matrix(1,0,0,1,0.09720945799767833,0.4000000000000057)"><svg viewBox="0 0 241.80558108400461 247.2" height="247.2" width="241.80558108400461"><g><svg viewBox="0 0 395.52 404.34362003428396" height="247.2" width="241.80558108400461"><g transform="matrix(1,0,0,1,0,231.29664683259142)"><svg viewBox="0 0 395.52 173.0469732016925" height="173.0469732016925" width="395.52"><g id="textblocktransform"><svg viewBox="0 0 395.52 173.0469732016925" height="173.0469732016925" width="395.52" id="textblock"><g><svg viewBox="0 0 395.52 173.0469732016925" height="173.0469732016925" width="395.52"><g transform="matrix(1,0,0,1,0,0)"><svg width="395.52" viewBox="2.76 -37.38 86.53999999999999 37.870000000000005" height="173.0469732016925" data-palette-color="#ff6347"><path d="M19.91-31.96Q20.39-32.98 20.64-33.98 20.9-34.99 20.9-35.93 20.9-36.87 20.53-37.38L20.53-37.38 28.08-37.38Q27.51-36.57 27.12-35.6L27.12-35.6 26.22-33.37Q24-28 19.75-25.29L19.75-25.29Q20.02-17.14 23.24-9.91L23.24-9.91Q26.15-3.3 30.08 0L30.08 0 21.66 0Q18.26-3.61 16.85-13.13L16.85-13.13Q16.31-16.63 15.94-21.34L15.94-21.34Q15.84-22.58 15.2-23.25 14.55-23.93 13.38-23.93 12.21-23.93 11.74-23.71 11.28-23.49 11.04-23.05L11.04-23.05Q10.62-22.29 10.62-19.53L10.62-19.53Q10.62-3.64 11.4-1.03L11.4-1.03Q11.55-0.54 11.77 0L11.77 0 3.59 0Q4.37-1.86 4.5-3.1 4.64-4.35 4.74-5.76L4.74-5.76Q4.93-8.64 4.93-13.5L4.93-13.5Q4.93-19.34 4.74-24.19L4.74-24.19 4.47-30.91Q4.32-34.59 3.54-36.11L3.54-36.11Q3.22-36.72 2.76-37.35L2.76-37.35 12.33-37.35Q11.35-36.08 11.06-34.99L11.06-34.99Q10.62-33.2 10.62-31.43 10.62-29.66 10.69-28.88 10.77-28.1 11.04-27.59L11.04-27.59Q11.6-26.61 13.04-26.6 14.48-26.59 15.44-27.04 16.41-27.49 17.24-28.25 18.07-29 18.75-29.97 19.43-30.93 19.91-31.96ZM48.95-13.04L48.95-13.04 48.87-8.35Q48.87-3.98 49.68-2.39L49.68-2.39Q50.17-1.44 50.83-0.93L50.83-0.93 51.98 0 44.89 0 44.14-2.83Q41.38 0.49 36.28 0.49L36.28 0.49Q33.37 0.49 31.59-1.46L31.59-1.46Q30.03-3.22 30.03-5.62 30.03-8.01 31.16-9.79 32.3-11.57 34.15-12.74L34.15-12.74Q37.81-15.01 43.36-15.11L43.36-15.11 43.36-15.38Q43.36-21.31 41.53-22.34L41.53-22.34Q40.87-22.71 39.83-22.71 38.79-22.71 37.77-22.02 36.74-21.34 35.91-20.26L35.91-20.26Q34.25-18.09 33.54-15.14L33.54-15.14Q31.37-16.43 31.37-20.09L31.37-20.09Q31.37-21.58 31.76-23.44L31.76-23.44Q32.69-23.44 33.52-23.71L33.52-23.71 35.4-24.29Q38.16-25.15 40.79-25.15 43.43-25.15 45-24.37 46.58-23.58 47.46-22.05L47.46-22.05Q48.95-19.43 48.95-13.04ZM35.3-5.13Q35.3-3.61 36-2.78 36.69-1.95 37.74-1.95 38.79-1.95 39.77-2.5 40.74-3.05 41.53-4L41.53-4Q43.36-6.18 43.36-9.11L43.36-9.11 43.36-12.72Q39.94-12.4 37.72-10.45L37.72-10.45Q35.3-8.35 35.3-5.13L35.3-5.13ZM67.55-24.66L75.58-24.66Q74.56-22.97 74.56-19.6L74.56-19.6Q74.56-18.8 75.04-17.07L75.04-17.07Q76.22-13.13 76.73-11.57L76.73-11.57 78.56-6.25Q79.71-9.64 80.22-11.33L80.22-11.33Q82.64-19.38 82.64-20.39 82.64-21.39 82.54-21.91 82.44-22.44 82.27-22.9L82.27-22.9Q81.98-23.56 81.12-24.66L81.12-24.66 89.3-24.66Q87.79-23.02 87.2-21.57 86.62-20.12 86.32-19.36L86.32-19.36 83.3-10.86Q82.17-7.45 81.68-5.79L81.68-5.79Q81.39-4.47 81.39-2.98 81.39-1.49 82.03 0.02L82.03 0.02 72.99 0Q73.58-0.93 73.69-1.75 73.8-2.56 73.8-3.34 73.8-4.13 73.55-5.27 73.31-6.42 72.9-7.91L72.9-7.91Q72.07-11.01 70.8-14.53L70.8-14.53Q68.43-8.47 67.94-6.51 67.45-4.54 67.45-3.04 67.45-1.54 68.11 0.02L68.11 0.02 59.08 0Q59.66-0.93 59.77-1.75 59.88-2.56 59.88-3.43 59.88-4.3 59.53-5.93 59.17-7.57 58.59-9.64 58-11.72 57.25-14.03 56.49-16.33 55.66-18.43L55.66-18.43Q53.78-23.19 52.49-24.66L52.49-24.66 61.49-24.66Q61.05-23.58 61.05-22.29 61.05-21 61.24-20.03 61.42-19.07 61.73-17.8 62.03-16.53 62.45-15.06L62.45-15.06 64.89-6.49Q68.38-15.33 68.77-17.03 69.16-18.73 69.16-19.21L69.16-19.21Q69.16-22.36 67.55-24.66L67.55-24.66Z" opacity="1" transform="matrix(1,0,0,1,0,0)" fill="#ff6347" class="wordmark-text-0" data-fill-palette-color="primary" id="text-0"></path></svg></g></svg></g></svg></g></svg></g><g transform="matrix(1,0,0,1,75.54432000000001,0)"><svg viewBox="0 0 244.43135999999996 190.44440958702864" height="190.44440958702864" width="244.43135999999996"><g><svg version="1.0" xmlns="http://www.w3.org/2000/svg" xmlns:xlink="http://www.w3.org/1999/xlink" x="0" y="0" viewBox="0 0.00004198902361185475 100 77.91324713286735" enable-background="new 0 0 100 77.913" xml:space="preserve" id="icon-0" width="244.43135999999996" height="190.44440958702864" class="icon-icon-0" data-fill-palette-color="accent"><path d="M87.838 3.242C86.384-0.196 71.381-5.747 66.424 16.395L40.251 36.025 1.098 59.468 3.059 60.147 8.261 58.629 0 63.508 2.709 64.446 30.733 56.118S43.376 57.845 53.227 57.852L51.834 60.638C51.365 61.577 55.331 70.968 56.796 75.44L49.385 76.566C48.502 76.7 48.879 78.037 49.754 77.904L57.558 76.719 65.361 77.904C66.236 78.037 66.613 76.7 65.73 76.566L58.255 75.43 57.914 74.276 56.587 69.783 54.108 61.389 54.091 61.34C54.391 60.738 63.848 56.428 63.848 56.428L63.843 56.427C98.2 44.06 79.276 15.709 86.517 11.306 89.562 9.455 100 6.679 100 6.679 100 3.52 87.838 3.242 87.838 3.242" fill="#008080" data-fill-palette-color="accent"></path></svg></g></svg></g><g></g></svg></g><defs></defs></svg><rect width="241.80558108400461" height="247.2" fill="none" stroke="none" visibility="hidden"></rect></g></svg></g></svg>